<svg width="16" height="16" viewBox="0 0 16 16" fill="none" xmlns="http://www.w3.org/2000/svg">
<path d="M2.8393 11.0625C2.09384 9.80582 1.83277 8.32024 2.10512 6.88471C2.37747 5.44918 3.1645 4.16245 4.31843 3.26614C5.47235 2.36983 6.91379 1.92559 8.37208 2.01684C9.83036 2.1081 11.2052 2.72857 12.2384 3.76175C13.2715 4.79492 13.892 6.16973 13.9833 7.62802C14.0745 9.0863 13.6303 10.5277 12.734 11.6817C11.8377 12.8356 10.551 13.6226 9.11543 13.895C7.67991 14.1674 6.19433 13.9063 4.93766 13.1608L4.93767 13.1608L2.86539 13.7529C2.77965 13.7774 2.68892 13.7785 2.6026 13.7561C2.51629 13.7337 2.43752 13.6887 2.37447 13.6256C2.31142 13.5626 2.26637 13.4838 2.24401 13.3975C2.22164 13.3112 2.22276 13.2205 2.24726 13.1347L2.83934 11.0624L2.8393 11.0625Z" stroke="#757575" stroke-linecap="round" stroke-linejoin="round"/>
<path d="M6 7H10" stroke="#757575" stroke-linecap="round" stroke-linejoin="round"/>
<path d="M6 9H10" stroke="#757575" stroke-linecap="round" stroke-linejoin="round"/>
</svg>
