<svg width="29" height="29" viewBox="0 0 29 29" fill="none" xmlns="http://www.w3.org/2000/svg">
<path d="M14.5 2.71875H14.5C15.7018 2.71875 16.8543 3.19615 17.7041 4.04592C18.5539 4.8957 19.0312 6.04824 19.0312 7.25V14.5C19.0312 15.7018 18.5539 16.8543 17.7041 17.7041C16.8543 18.5539 15.7018 19.0312 14.5 19.0312H14.5C13.9049 19.0313 13.3157 18.914 12.766 18.6863C12.2162 18.4586 11.7167 18.1248 11.2959 17.7041C10.8752 17.2833 10.5414 16.7838 10.3137 16.234C10.086 15.6843 9.96875 15.0951 9.96875 14.5V7.24999C9.96875 6.04823 10.4461 4.89569 11.2959 4.04592C12.1457 3.19615 13.2982 2.71875 14.5 2.71875V2.71875Z" stroke="#212121" stroke-width="1.5" stroke-linecap="round" stroke-linejoin="round"/>
<path d="M14.5 22.6562V26.2812" stroke="#212121" stroke-width="1.5" stroke-linecap="round" stroke-linejoin="round"/>
<path d="M22.6075 15.4063C22.3844 17.4001 21.4342 19.2419 19.9388 20.5793C18.4433 21.9168 16.5073 22.6562 14.501 22.6562C12.4947 22.6562 10.5587 21.9168 9.06323 20.5793C7.56775 19.2419 6.61764 17.4001 6.39453 15.4062" stroke="#212121" stroke-width="1.5" stroke-linecap="round" stroke-linejoin="round"/>
</svg>
