<svg width="32" height="32" viewBox="0 0 32 32" fill="none" xmlns="http://www.w3.org/2000/svg">
<path d="M16 28C22.6274 28 28 22.6274 28 16C28 9.37258 22.6274 4 16 4C9.37258 4 4 9.37258 4 16C4 22.6274 9.37258 28 16 28Z" stroke="#424242" stroke-width="1.5" stroke-linecap="round" stroke-linejoin="round"/>
<path d="M8.87891 25.6591C10.6589 22.7103 13.1707 20.2714 16.1707 18.5791C19.1707 16.8867 22.5571 15.9983 26.0016 16C26.6761 16 27.3424 16.0329 28.0004 16.0986" stroke="#424242" stroke-width="1.5" stroke-linecap="round" stroke-linejoin="round"/>
<path d="M23.5043 6.63672C21.6305 8.93981 19.2665 10.7959 16.5846 12.0697C13.9027 13.3435 10.9704 14.003 8.00134 14.0001C6.73668 14.0007 5.47478 13.882 4.23242 13.6455" stroke="#424242" stroke-width="1.5" stroke-linecap="round" stroke-linejoin="round"/>
<path d="M10.7422 5.21094C13.7496 6.97553 16.2431 9.49603 17.9752 12.5222C19.7073 15.5484 20.6178 18.975 20.6163 22.4618C20.6174 24.0956 20.4188 25.7234 20.0249 27.3089" stroke="#424242" stroke-width="1.5" stroke-linecap="round" stroke-linejoin="round"/>
</svg>
