<svg width="24" height="24" viewBox="0 0 24 24" fill="none" xmlns="http://www.w3.org/2000/svg">
<path d="M20.25 10.5V6" stroke="#212121" stroke-width="1.5" stroke-linecap="round" stroke-linejoin="round"/>
<path d="M22.5 8.25H18" stroke="#212121" stroke-width="1.5" stroke-linecap="round" stroke-linejoin="round"/>
<path d="M15.75 2.25V5.25" stroke="#212121" stroke-width="1.5" stroke-linecap="round" stroke-linejoin="round"/>
<path d="M17.25 3.75H14.25" stroke="#212121" stroke-width="1.5" stroke-linecap="round" stroke-linejoin="round"/>
<path d="M20.7719 14.022C19.2847 14.3631 17.7353 14.3209 16.2689 13.8993C14.8025 13.4777 13.4673 12.6905 12.3884 11.6116C11.3095 10.5327 10.5223 9.19744 10.1007 7.73105C9.67911 6.26467 9.63689 4.71522 9.97802 3.22805L9.9779 3.22803C8.41221 3.5892 6.97174 4.3629 5.80605 5.4688C4.64036 6.5747 3.79195 7.97247 3.34891 9.517C2.90588 11.0615 2.88436 12.6965 3.2866 14.2521C3.68885 15.8078 4.50018 17.2274 5.63636 18.3636C6.77255 19.4998 8.19216 20.3111 9.74781 20.7134C11.3035 21.1156 12.9384 21.0941 14.4829 20.6511C16.0275 20.208 17.4253 19.3596 18.5312 18.1939C19.6371 17.0283 20.4108 15.5878 20.7719 14.0221L20.7719 14.022Z" stroke="#212121" stroke-width="1.5" stroke-linecap="round" stroke-linejoin="round"/>
</svg>
