<svg width="32" height="32" viewBox="0 0 32 32" fill="none" xmlns="http://www.w3.org/2000/svg">
<path d="M16 28C22.6274 28 28 22.6274 28 16C28 9.37258 22.6274 4 16 4C9.37258 4 4 9.37258 4 16C4 22.6274 9.37258 28 16 28Z" stroke="#424242" stroke-width="1.5" stroke-linecap="round" stroke-linejoin="round"/>
<path d="M26.7708 21.2961L19.9851 17.1226C19.8661 17.0494 19.7332 17.002 19.5948 16.9833L16.7424 16.5988C16.5282 16.5699 16.3105 16.6112 16.1217 16.7165C15.933 16.8218 15.7834 16.9854 15.6954 17.1828L13.9831 21.0251C13.9035 21.2038 13.878 21.4019 13.9098 21.5949C13.9417 21.7879 14.0294 21.9673 14.1622 22.111L16.5122 24.6528C16.6187 24.7681 16.6967 24.9067 16.7397 25.0577C16.7827 25.2086 16.7895 25.3675 16.7597 25.5216L16.2811 27.9961" stroke="#424242" stroke-width="1.5" stroke-linecap="round" stroke-linejoin="round"/>
<path d="M8.11888 6.95117L7.00085 9.59489C6.90116 9.83061 6.89565 10.0956 6.98545 10.3353L8.42181 14.1688C8.48062 14.3258 8.57797 14.4654 8.70488 14.575C8.83179 14.6845 8.9842 14.7604 9.1481 14.7956L11.8268 15.3713C11.9755 15.4033 12.1149 15.4687 12.2344 15.5626C12.354 15.6565 12.4506 15.7765 12.5168 15.9133L12.9925 16.8961C13.0744 17.0652 13.2022 17.2078 13.3614 17.3076C13.5206 17.4074 13.7047 17.4604 13.8926 17.4604H15.5717" stroke="#424242" stroke-width="1.5" stroke-linecap="round" stroke-linejoin="round"/>
<path d="M19.0573 4.39453L20.224 6.48433C20.3343 6.68189 20.3744 6.91101 20.3376 7.13426C20.3009 7.35752 20.1895 7.56171 20.0217 7.71347L16.6578 10.7557C16.6007 10.8073 16.5378 10.8522 16.4705 10.8894L14.9402 11.7344C14.7922 11.8162 14.6259 11.859 14.4568 11.859H11.7886C11.5919 11.859 11.3995 11.9171 11.2356 12.0259C11.0716 12.1347 10.9435 12.2895 10.8671 12.4708L9.82617 14.9419" stroke="#424242" stroke-width="1.5" stroke-linecap="round" stroke-linejoin="round"/>
</svg>
