<svg width="32" height="32" viewBox="0 0 32 32" fill="none" xmlns="http://www.w3.org/2000/svg">
<path d="M16 28C22.6274 28 28 22.6274 28 16C28 9.37258 22.6274 4 16 4C9.37258 4 4 9.37258 4 16C4 22.6274 9.37258 28 16 28Z" stroke="#424242" stroke-width="1.5" stroke-linecap="round" stroke-linejoin="round"/>
<path d="M6.19922 22.9246L7.62105 22.0663C7.77338 21.9743 7.89418 21.8383 7.96746 21.6761C8.04073 21.514 8.06302 21.3334 8.03137 21.1583L7.22388 16.691C7.18842 16.4949 7.22077 16.2924 7.3156 16.1171L8.65127 13.6473C8.70665 13.545 8.78183 13.4546 8.87244 13.3815L10.917 11.7327C11.0526 11.6234 11.2176 11.5568 11.3911 11.5415C11.5647 11.5262 11.7388 11.5629 11.8914 11.6468L12.7907 12.1414C12.9765 12.2436 13.119 12.4095 13.192 12.6086L13.3637 13.0769C13.4214 13.2342 13.5228 13.3716 13.656 13.4731C13.7892 13.5746 13.9487 13.6359 14.1156 13.6498C14.2825 13.6636 14.4499 13.6294 14.598 13.5513C14.7462 13.4731 14.8688 13.3542 14.9516 13.2086L15.5418 12.1705C15.6009 12.0666 15.6805 11.9759 15.7758 11.9039C15.8711 11.8318 15.9801 11.78 16.0962 11.7516C16.2122 11.7231 16.3328 11.7187 16.4506 11.7384C16.5685 11.7582 16.681 11.8018 16.7814 11.8666L18.5832 13.0293C18.7321 13.1253 18.9065 13.1741 19.0836 13.1692C19.2607 13.1643 19.4321 13.106 19.5755 13.0019C19.7188 12.8978 19.8273 12.7527 19.8867 12.5858C19.9461 12.4189 19.9536 12.2379 19.9083 12.0667V12.0667C19.8559 11.8689 19.8743 11.6589 19.9602 11.4732C20.0461 11.2875 20.1942 11.1376 20.3789 11.0494L22.8621 9.86432C23.0364 9.78114 23.1784 9.64281 23.2661 9.47075C23.3539 9.2987 23.3824 9.10252 23.3474 8.91259L22.8357 6.13672" stroke="#424242" stroke-width="1.5" stroke-linecap="round" stroke-linejoin="round"/>
<path d="M23.9279 25.006L22.1069 23.1814C22.0253 23.0996 21.9284 23.0348 21.8217 22.9906C21.7151 22.9463 21.6008 22.9236 21.4853 22.9236H20.0559C19.9298 22.9236 19.8051 22.8964 19.6904 22.8439C19.5757 22.7914 19.4737 22.7148 19.3913 22.6193C19.3088 22.5239 19.2479 22.4118 19.2127 22.2907C19.1775 22.1695 19.1687 22.0423 19.1871 21.9175L19.4847 19.8964C19.5049 19.7591 19.5574 19.6285 19.6378 19.5154C19.7182 19.4023 19.8243 19.3099 19.9473 19.2457L22.9302 17.6894C23.0882 17.607 23.2676 17.5746 23.4445 17.5965C23.6214 17.6185 23.7874 17.6937 23.9205 17.8123L27.0755 20.6231" stroke="#424242" stroke-width="1.5" stroke-linecap="round" stroke-linejoin="round"/>
</svg>
