<svg width="24" height="24" viewBox="0 0 24 24" fill="none" xmlns="http://www.w3.org/2000/svg">
<path d="M11.4713 6.6968L13.3274 4.84065C13.7104 4.45731 14.1652 4.15319 14.6657 3.94565C15.1663 3.73811 15.7028 3.63123 16.2446 3.6311C16.7865 3.63098 17.3231 3.73761 17.8237 3.94492C18.3244 4.15222 18.7793 4.45613 19.1624 4.83929C19.5456 5.22244 19.8495 5.67734 20.0568 6.17798C20.2641 6.67862 20.3707 7.2152 20.3706 7.75706C20.3705 8.29893 20.2636 8.83546 20.0561 9.336C19.8485 9.83655 19.5444 10.2913 19.1611 10.6743L16.5094 13.3259C16.1264 13.709 15.6716 14.0128 15.1712 14.2201C14.6707 14.4274 14.1343 14.5341 13.5926 14.5341C13.0509 14.5341 12.5145 14.4274 12.014 14.2201C11.5136 14.0128 11.0588 13.709 10.6758 13.3259" stroke="#757575" stroke-width="1.5" stroke-linecap="round" stroke-linejoin="round"/>
<path d="M12.5321 17.3034L10.676 19.1595C10.293 19.5429 9.83826 19.847 9.33771 20.0545C8.83717 20.2621 8.30064 20.3689 7.75877 20.3691C7.21691 20.3692 6.68033 20.2626 6.17969 20.0553C5.67905 19.848 5.22415 19.544 4.841 19.1609C4.45784 18.7777 4.15393 18.3228 3.94663 17.8222C3.73932 17.3216 3.63269 16.785 3.63281 16.2431C3.63294 15.7012 3.73982 15.1647 3.94736 14.6642C4.1549 14.1636 4.45902 13.7089 4.84236 13.3259L7.49401 10.6742C7.87705 10.2912 8.33178 9.98736 8.83225 9.78006C9.33272 9.57276 9.86912 9.46606 10.4108 9.46606C10.9525 9.46606 11.4889 9.57276 11.9894 9.78006C12.4899 9.98736 12.9446 10.2912 13.3276 10.6742" stroke="#757575" stroke-width="1.5" stroke-linecap="round" stroke-linejoin="round"/>
</svg>
