<svg width="24" height="24" viewBox="0 0 24 24" fill="none" xmlns="http://www.w3.org/2000/svg">
<path d="M4.10874 18.1152H4.10733L4.07766 18.1146L4.07738 18.1146L4.08086 17.9896C2.90209 17.9595 1.97075 16.9723 2.0007 15.7847L4.10874 18.1152ZM4.10874 18.1152H6.10867V18.1153L6.11457 18.115C6.4676 18.0983 6.73877 17.7968 6.72233 17.4434L4.10874 18.1152ZM13.7754 21.3066L13.7754 21.3066C14.0318 21.0421 14.1664 20.681 14.1458 20.3115L14.1454 20.3045L14.1456 20.3045V20.3045V20.3045V20.3045V20.3044V20.3044V20.3044V20.3044V20.3044V20.3044V20.3044V20.3043V20.3043V20.3043V20.3043V20.3043V20.3043V20.3042V20.3042V20.3042V20.3042V20.3042V20.3042V20.3042V20.3041V20.3041V20.3041V20.3041V20.3041V20.3041V20.304V20.304V20.304V20.304V20.304V20.304V20.304V20.3039V20.3039V20.3039V20.3039V20.3039V20.3039V20.3038V20.3038V20.3038V20.3038V20.3038V20.3038V20.3038V20.3037V20.3037V20.3037V20.3037V20.3037V20.3037V20.3036V20.3036V20.3036V20.3036V20.3036V20.3036V20.3036V20.3035V20.3035V20.3035V20.3035V20.3035V20.3035V20.3034V20.3034V20.3034V20.3034V20.3034V20.3034V20.3033V20.3033V20.3033V20.3033V20.3033V20.3032V20.3032L13.7754 21.3066ZM13.7754 21.3066L13.773 21.3092M13.7754 21.3066L13.773 21.3092M13.773 21.3092C13.4972 21.6105 13.11 21.783 12.7037 21.786M13.773 21.3092L12.7037 21.786M12.7037 21.786C11.8932 21.7723 11.2341 21.1207 11.2065 20.3025C11.2072 19.4843 11.8654 18.8228 12.6754 18.8224C13.4862 18.8221 14.1452 19.4842 14.1456 20.3032L12.7037 21.786ZM1.8757 12.3813V15.7832L17.6759 17.4183C17.6457 17.7024 17.8498 17.9574 18.1318 17.9878L18.1184 18.112C18.1184 18.112 18.1184 18.112 18.1184 18.112C18.1311 18.1134 18.1438 18.1144 18.1566 18.115L18.1566 18.1151H18.1623H18.5381C17.7693 19.0712 16.62 19.6377 15.3977 19.6614C15.0455 18.1934 13.5988 17.2575 12.1161 17.5622C10.8196 17.8285 9.88585 18.9721 9.87538 20.3035L9.87541 20.3057C9.89087 21.8665 11.1515 23.1251 12.703 23.125L12.7051 23.125C13.472 23.1125 14.2028 22.7954 14.7386 22.243L14.7386 22.2429C15.078 21.8928 15.3082 21.4515 15.4026 20.9734C17.0921 20.9471 18.6773 20.1361 19.6948 18.7728L19.695 18.7729L19.6983 18.7678L20.1782 18.0554C20.7563 18.0031 21.2374 17.7921 21.5781 17.4523C21.9316 17.0999 22.125 16.6178 22.125 16.0569V12.6534C22.125 12.0399 21.8994 11.3739 21.5121 10.8596C21.1381 10.3629 20.6033 9.99587 19.963 9.9705V8.75994C19.963 4.40609 16.4594 0.875 12.1355 0.875C7.81159 0.875 4.30804 4.40609 4.30804 8.75994V9.9691H4.10874C2.83895 9.9691 1.8757 11.0991 1.8757 12.3813ZM17.5509 10.7475V17.4121L6.72013 17.4121V10.7475C6.72013 10.562 6.66682 10.3732 6.5663 10.2273C6.46493 10.0803 6.30855 9.96905 6.10867 9.96905H5.63909V8.75988C5.63909 5.14387 8.54852 2.21406 12.1355 2.21406C15.7225 2.21406 18.6319 5.14387 18.6319 8.75988V9.96905H18.1623C17.9624 9.96905 17.8061 10.0802 17.7047 10.2273C17.6042 10.3731 17.5509 10.5619 17.5509 10.7475ZM3.20661 15.7907L3.20675 15.7907V15.7847V12.3812C3.20675 11.8004 3.60467 11.3082 4.10874 11.3082H5.38909V16.776H4.11034C3.59893 16.7627 3.19311 16.3343 3.20563 15.8167L3.20661 15.7907ZM20.794 16.057C20.794 16.3743 20.6474 16.5457 20.4668 16.6452C20.277 16.7498 20.0445 16.776 19.892 16.776H18.8819V11.3082H19.892C20.1265 11.3082 20.35 11.4763 20.5227 11.7502C20.6934 12.0208 20.794 12.3654 20.794 12.6535V16.057Z" fill="#212121" stroke="#212121" stroke-width="0.25"/>
</svg>
